<svg width="22" height="26" viewBox="0 0 22 26" fill="none" xmlns="http://www.w3.org/2000/svg">
<path d="M11.24 25.6719C4.47199 25.6719 0.007991 22.2159 0.391991 16.4079H5.67199C5.33599 19.3839 7.54399 21.2559 11.288 21.2559C14.216 21.2559 16.184 20.1039 16.184 18.3759C16.184 13.5759 0.727991 17.0319 0.727991 8.05588C0.727991 3.25588 5.19199 0.327881 11 0.327881C17.432 0.327881 22.088 3.92788 21.08 9.35188H15.752C16.424 6.61588 14.264 4.74388 10.952 4.74388C8.16799 4.74388 6.34399 5.99188 6.34399 7.71988C6.34399 12.5679 21.848 8.87188 21.848 17.9919C21.848 22.8399 17.48 25.6719 11.24 25.6719Z" fill="white"/>
</svg>
